# xmcd
#
# Track frame offsets:
#	225
#	23400
#	46153
#	66144
#	91943
#	114947
#	134154
#	156867
#	176600
#	202625
#	218729
#	240503
#
# Disc length: 3498 seconds
#
# Revision: 0
# Processed by: cddbd v1.5.1PL0 Copyright (c) Steve Scherf et al.
# Submitted via: EasyCDDAExtractor 8.0.1.1
#
DISCID=940da70c
DTITLE=Jeff Floyd - The Power Is Still On
DYEAR=2004
DGENRE=Blues
TTITLE0=Let Me Know
TTITLE1=I Got My Woman Upset
TTITLE2=Lovin' Someone On The Outside
TTITLE3=I Don't Wanna Lose Your Love
TTITLE4=Swing Out For Love
TTITLE5=Thank You Baby
TTITLE6=Somebody Is Gonna Lose A Good Woman
TTITLE7=It's You
TTITLE8=Last Chance
TTITLE9=You Had It All
TTITLE10=King Size Bed
TTITLE11=Night Club
EXTD=
EXTT0=
EXTT1=
EXTT2=
EXTT3=
EXTT4=
EXTT5=
EXTT6=
EXTT7=
EXTT8=
EXTT9=
EXTT10=
EXTT11=
PLAYORDER=
